<?xml version="1.0" encoding="UTF-8" standalone="no"?><!DOCTYPE svg PUBLIC "-//W3C//DTD SVG 1.1//EN" "http://www.w3.org/Graphics/SVG/1.1/DTD/svg11.dtd"><svg width="100%" height="100%" viewBox="0 0 50 50" version="1.1" xmlns="http://www.w3.org/2000/svg" xmlns:xlink="http://www.w3.org/1999/xlink" xml:space="preserve" xmlns:serif="http://www.serif.com/" style="fill-rule:evenodd;clip-rule:evenodd;stroke-linejoin:round;stroke-miterlimit:2;"><path d="M31.25,35.843l-4.135,-0l-0,-13.522c-0,-0.245 -0.201,-0.446 -0.446,-0.446l-3.349,-0c-0.245,-0 -0.446,0.201 -0.446,0.446l-0,13.522l-4.124,-0c-0.374,-0 -0.58,0.429 -0.352,0.719l6.25,7.908c0.085,0.108 0.215,0.171 0.352,0.171c0.137,0 0.267,-0.063 0.352,-0.171l6.25,-7.908c0.228,-0.29 0.022,-0.719 -0.352,-0.719Z" style="fill:#008cff;fill-rule:nonzero;"/><path d="M41.708,16.892c-2.556,-6.741 -9.068,-11.535 -16.697,-11.535c-7.628,0 -14.14,4.788 -16.696,11.529c-4.783,1.256 -8.315,5.614 -8.315,10.793c0,6.166 4.994,11.16 11.155,11.16l2.238,0c0.245,0 0.446,-0.201 0.446,-0.446l0,-3.348c0,-0.246 -0.201,-0.447 -0.446,-0.447l-2.238,0c-1.88,0 -3.649,-0.748 -4.966,-2.104c-1.312,-1.35 -2.009,-3.169 -1.948,-5.055c0.05,-1.474 0.553,-2.858 1.462,-4.024c0.932,-1.188 2.238,-2.053 3.689,-2.438l2.115,-0.553l0.775,-2.042c0.48,-1.273 1.15,-2.461 1.993,-3.538c0.831,-1.068 1.817,-2.006 2.924,-2.785c2.293,-1.613 4.994,-2.466 7.812,-2.466c2.818,-0 5.519,0.853 7.813,2.466c1.11,0.781 2.092,1.719 2.924,2.785c0.842,1.077 1.512,2.271 1.992,3.538l0.77,2.037l2.109,0.558c3.025,0.814 5.14,3.565 5.14,6.702c-0,1.847 -0.72,3.588 -2.026,4.894c-1.293,1.3 -3.054,2.03 -4.888,2.025l-2.238,0c-0.245,0 -0.446,0.201 -0.446,0.447l-0,3.348c-0,0.245 0.201,0.446 0.446,0.446l2.238,0c6.161,0 11.155,-4.994 11.155,-11.16c-0,-5.173 -3.521,-9.526 -8.292,-10.787Z" style="fill:#008cff;fill-rule:nonzero;"/></svg>